<svg width="16" height="16" viewBox="0 0 16 16" fill="none" xmlns="http://www.w3.org/2000/svg">
<g clip-path="url(#clip0_53_471)">
<path d="M7.66668 3.33337H7.95628C9.98777 3.33337 11.0035 3.33337 11.3891 3.69823C11.7224 4.01362 11.8701 4.47823 11.7801 4.92818C11.676 5.44872 10.8467 6.03528 9.1882 7.20839L6.47849 9.12502C4.81995 10.2981 3.99067 10.8847 3.88657 11.4052C3.79658 11.8552 3.94429 12.3198 4.27759 12.6352C4.66317 13 5.67892 13 7.71041 13H8.33334M5.33334 3.33337C5.33334 4.43794 4.43791 5.33337 3.33334 5.33337C2.22877 5.33337 1.33334 4.43794 1.33334 3.33337C1.33334 2.2288 2.22877 1.33337 3.33334 1.33337C4.43791 1.33337 5.33334 2.2288 5.33334 3.33337ZM14.6667 12.6667C14.6667 13.7713 13.7712 14.6667 12.6667 14.6667C11.5621 14.6667 10.6667 13.7713 10.6667 12.6667C10.6667 11.5621 11.5621 10.6667 12.6667 10.6667C13.7712 10.6667 14.6667 11.5621 14.6667 12.6667Z" stroke="#111827" stroke-width="1.5" stroke-linecap="round" stroke-linejoin="round"/>
</g>
<defs>
<clipPath id="clip0_53_471">
<rect width="16" height="16" fill="white"/>
</clipPath>
</defs>
</svg>
